<svg id="visual" viewBox="0 0 960 540" width="960" height="540" xmlns="http://www.w3.org/2000/svg" xmlns:xlink="http://www.w3.org/1999/xlink" version="1.1"><rect x="0" y="0" width="960" height="540" fill="#001220"></rect><defs><linearGradient id="grad1_0" x1="43.8%" y1="0%" x2="100%" y2="100%"><stop offset="14.444444444444446%" stop-color="#001220" stop-opacity="1"></stop><stop offset="85.55555555555554%" stop-color="#001220" stop-opacity="1"></stop></linearGradient></defs><defs><linearGradient id="grad2_0" x1="0%" y1="0%" x2="56.3%" y2="100%"><stop offset="14.444444444444446%" stop-color="#001220" stop-opacity="1"></stop><stop offset="85.55555555555554%" stop-color="#001220" stop-opacity="1"></stop></linearGradient></defs><g transform="translate(960, 0)"><path d="M0 459C-50.9 432.7 -101.7 406.4 -161.1 389C-220.5 371.6 -288.3 363.1 -324.6 324.6C-360.8 286.1 -365.4 217.5 -382.5 158.4C-399.6 99.3 -429.3 49.7 -459 0L0 0Z" fill="#7A01A7"></path></g><g transform="translate(0, 540)"><path d="M0 -459C61.1 -454.2 122.3 -449.4 175.7 -424.1C229 -398.7 274.7 -352.7 304.1 -304.1C333.4 -255.4 346.4 -204.2 369.6 -153.1C392.7 -102 425.8 -51 459 0L0 0Z" fill="#7A01A7"></path></g></svg>