<svg id="visual" viewBox="0 0 960 540" width="960" height="540" xmlns="http://www.w3.org/2000/svg" xmlns:xlink="http://www.w3.org/1999/xlink" version="1.1"><rect x="0" y="0" width="960" height="540" fill="#140021"></rect><path d="M784 0L724 0L724 77L619 77L619 154L707 154L707 231L679 231L679 309L706 309L706 386L696 386L696 463L672 463L672 540L0 540L0 463L0 463L0 386L0 386L0 309L0 309L0 231L0 231L0 154L0 154L0 77L0 77L0 0L0 0Z" fill="#9900ff"></path><path d="M649 0L554 0L554 77L623 77L623 154L577 154L577 231L650 231L650 309L535 309L535 386L516 386L516 463L544 463L544 540L0 540L0 463L0 463L0 386L0 386L0 309L0 309L0 231L0 231L0 154L0 154L0 77L0 77L0 0L0 0Z" fill="#8800e2"></path><path d="M395 0L342 0L342 77L505 77L505 154L387 154L387 231L415 231L415 309L417 309L417 386L528 386L528 463L442 463L442 540L0 540L0 463L0 463L0 386L0 386L0 309L0 309L0 231L0 231L0 154L0 154L0 77L0 77L0 0L0 0Z" fill="#7700c6"></path><path d="M288 0L380 0L380 77L228 77L228 154L262 154L262 231L333 231L333 309L288 309L288 386L253 386L253 463L362 463L362 540L0 540L0 463L0 463L0 386L0 386L0 309L0 309L0 231L0 231L0 154L0 154L0 77L0 77L0 0L0 0Z" fill="#6600ab"></path><path d="M184 0L134 0L134 77L180 77L180 154L184 154L184 231L103 231L103 309L178 309L178 386L89 386L89 463L97 463L97 540L0 540L0 463L0 463L0 386L0 386L0 309L0 309L0 231L0 231L0 154L0 154L0 77L0 77L0 0L0 0Z" fill="#560090"></path></svg>